# xmcd
# Copyright (C) 1995-1998 Ti Kan
#
# Track frame offsets:
#       150
#       9042
#       20228
#       30339
#       39882
#       52252
#       58258
#       68687
#       79376
#       90988
#       99876
#       109748
#       119933
#       131097
#       141020
#       150912
#
# Disc length: 2140 seconds
#
# Revision: 0
# Processed by: cddbd v1.5.2PL0 Copyright (c) Steve Scherf et al.
# Submitted via: CD-Import v1.0
#
DISCID=cb085a10
DTITLE=Roy Orbison - Hits And Rarities
DYEAR=1900
DGENRE=
TTITLE0=Claudette
TTITLE1=Fools Hall Of Fame
TTITLE2=Ooby Dooby
TTITLE3=Rock House
TTITLE4=Trying To Get To You
TTITLE5=One More Time
TTITLE6=Domino
TTITLE7=A True Love Goodbye
TTITLE8=I Like Love
TTITLE9=The Clown
TTITLE10=This Kind Of Love
TTITLE11=Sweet And Easy To Love
TTITLE12=The Cause Of It All
TTITLE13=You're Gonna Cry
TTITLE14=Go! Go! Go! (Move On Down The Line)
TTITLE15=Devil Doll
EXTD=
EXTT0=
EXTT1=
EXTT2=
EXTT3=
EXTT4=
EXTT5=
EXTT6=
EXTT7=
EXTT8=
EXTT9=
EXTT10=
EXTT11=
EXTT12=
EXTT13=
EXTT14=
EXTT15=
PLAYORDER=
